<svg width="38" height="33" viewBox="0 0 38 33" fill="none" xmlns="http://www.w3.org/2000/svg">
<path d="M33.7885 4.01126C31.8641 2.08193 29.3133 0.904371 26.5967 0.691304C23.8801 0.478236 21.1768 1.24371 18.9753 2.84944C16.6655 1.13147 13.7906 0.352454 10.9295 0.669279C8.0684 0.986104 5.4336 2.37523 3.55568 4.55692C1.67777 6.73862 0.696241 9.55082 0.808754 12.4272C0.921267 15.3036 2.11946 18.0306 4.16206 20.0589L15.4353 31.3503C16.3794 32.2794 17.6508 32.8001 18.9753 32.8001C20.2998 32.8001 21.5712 32.2794 22.5152 31.3503L33.7885 20.0589C35.908 17.9264 37.0977 15.0418 37.0977 12.0351C37.0977 9.02837 35.908 6.1438 33.7885 4.01126ZM31.2288 17.5537L19.9555 28.827C19.8273 28.9565 19.6746 29.0594 19.5063 29.1295C19.3381 29.1997 19.1576 29.2358 18.9753 29.2358C18.793 29.2358 18.6125 29.1997 18.4442 29.1295C18.2759 29.0594 18.1233 28.9565 17.995 28.827L6.72169 17.4993C5.29802 16.044 4.50082 14.0891 4.50082 12.0532C4.50082 10.0174 5.29802 8.06248 6.72169 6.6072C8.17243 5.17487 10.129 4.37173 12.1677 4.37173C14.2064 4.37173 16.163 5.17487 17.6138 6.6072C17.7825 6.77735 17.9833 6.9124 18.2045 7.00456C18.4257 7.09673 18.663 7.14418 18.9026 7.14418C19.1423 7.14418 19.3796 7.09673 19.6008 7.00456C19.822 6.9124 20.0228 6.77735 20.1915 6.6072C21.6423 5.17487 23.5989 4.37173 25.6376 4.37173C27.6763 4.37173 29.6329 5.17487 31.0836 6.6072C32.5268 8.04341 33.3502 9.98772 33.3774 12.0236C33.4045 14.0595 32.6333 16.0251 31.2288 17.4993V17.5537Z" fill="#B1B1B1"/>
</svg>
