<svg width="36" height="36" viewBox="0 0 36 36" fill="none" xmlns="http://www.w3.org/2000/svg">
<path d="M21.1956 28.223C21.6614 28.223 22.1081 28.0392 22.4375 27.7121C22.7669 27.385 22.9519 26.9414 22.9519 26.4787V22.9902C22.9519 22.5276 22.7669 22.0839 22.4375 21.7568C22.1081 21.4297 21.6614 21.2459 21.1956 21.2459C20.7298 21.2459 20.2831 21.4297 19.9537 21.7568C19.6243 22.0839 19.4393 22.5276 19.4393 22.9902V26.4787C19.4393 26.9414 19.6243 27.385 19.9537 27.7121C20.2831 28.0392 20.7298 28.223 21.1956 28.223ZM14.1704 28.223C14.6362 28.223 15.0829 28.0392 15.4123 27.7121C15.7416 27.385 15.9267 26.9414 15.9267 26.4787V22.9902C15.9267 22.5276 15.7416 22.0839 15.4123 21.7568C15.0829 21.4297 14.6362 21.2459 14.1704 21.2459C13.7046 21.2459 13.2578 21.4297 12.9285 21.7568C12.5991 22.0839 12.414 22.5276 12.414 22.9902V26.4787C12.414 26.9414 12.5991 27.385 12.9285 27.7121C13.2578 28.0392 13.7046 28.223 14.1704 28.223ZM29.9772 7.29169H27.5535L24.5151 1.27394C24.4222 1.05251 24.2844 0.852473 24.1102 0.686337C23.936 0.520202 23.7291 0.391535 23.5026 0.308377C23.2761 0.225219 23.0347 0.189357 22.7936 0.203033C22.5524 0.216708 22.3167 0.279627 22.1012 0.387858C21.8857 0.496088 21.6949 0.647304 21.5409 0.832055C21.3869 1.01681 21.2729 1.23112 21.206 1.46161C21.1392 1.6921 21.1209 1.9338 21.1523 2.17162C21.1838 2.40944 21.2643 2.63826 21.3888 2.84379L23.6193 7.29169H11.7466L13.9772 2.84379C14.1476 2.43721 14.1569 1.98163 14.0032 1.56852C13.8494 1.15541 13.544 0.81536 13.1483 0.616632C12.7525 0.417905 12.2957 0.375216 11.8696 0.497137C11.4435 0.619058 11.0796 0.896562 10.8509 1.27394L7.81249 7.29169H5.38878C4.1474 7.31044 2.95255 7.76395 2.01498 8.57222C1.07741 9.3805 0.45735 10.4916 0.26415 11.7096C0.0709495 12.9276 0.317025 14.1742 0.958975 15.2296C1.60093 16.285 2.59751 17.0814 3.77297 17.4783L5.07264 30.4906C5.2037 31.7858 5.81617 32.9861 6.79044 33.8569C7.76472 34.7277 9.03085 35.2067 10.3416 35.2001H25.0595C26.3703 35.2067 27.6364 34.7277 28.6107 33.8569C29.5849 32.9861 30.1974 31.7858 30.3285 30.4906L31.6281 17.4783C32.8061 17.0802 33.8043 16.2809 34.4458 15.222C35.0873 14.1631 35.3307 12.9129 35.133 11.6928C34.9352 10.4727 34.3091 9.36143 33.3654 8.5559C32.4217 7.75037 31.2215 7.30253 29.9772 7.29169ZM26.7983 30.1417C26.7546 30.5735 26.5504 30.9736 26.2257 31.2638C25.9009 31.5541 25.4789 31.7137 25.0419 31.7116H10.324C9.88711 31.7137 9.46507 31.5541 9.14031 31.2638C8.81555 30.9736 8.61139 30.5735 8.56771 30.1417L7.32072 17.7574H28.0452L26.7983 30.1417ZM29.9772 14.2688H5.38878C4.92297 14.2688 4.47625 14.085 4.14688 13.7579C3.8175 13.4308 3.63246 12.9871 3.63246 12.5245C3.63246 12.0619 3.8175 11.6182 4.14688 11.2911C4.47625 10.964 4.92297 10.7802 5.38878 10.7802H29.9772C30.443 10.7802 30.8897 10.964 31.2191 11.2911C31.5485 11.6182 31.7335 12.0619 31.7335 12.5245C31.7335 12.9871 31.5485 13.4308 31.2191 13.7579C30.8897 14.085 30.443 14.2688 29.9772 14.2688Z" fill="white"/>
</svg>
