<svg width="135" height="16" viewBox="0 0 135 16" fill="none" xmlns="http://www.w3.org/2000/svg">
<path d="M6.65625 13.1562C5.80729 13.1562 5.02344 13.0104 4.30469 12.7188C3.59115 12.4271 2.96875 12.0182 2.4375 11.4922C1.91146 10.9661 1.5026 10.3464 1.21094 9.63281C0.924479 8.91406 0.78125 8.13281 0.78125 7.28906C0.78125 6.4401 0.927083 5.65885 1.21875 4.94531C1.51042 4.22656 1.91927 3.60417 2.44531 3.07812C2.97656 2.55208 3.59896 2.14323 4.3125 1.85156C5.03125 1.5599 5.8125 1.41406 6.65625 1.41406C7.47396 1.41406 8.23698 1.5625 8.94531 1.85938C9.65885 2.15104 10.2839 2.5625 10.8203 3.09375C11.3568 3.61979 11.776 4.23958 12.0781 4.95312C12.3802 5.66667 12.5312 6.44531 12.5312 7.28906C12.5312 8.13281 12.3854 8.91406 12.0938 9.63281C11.8021 10.3464 11.3906 10.9661 10.8594 11.4922C10.3333 12.0182 9.71094 12.4271 8.99219 12.7188C8.27865 13.0104 7.5 13.1562 6.65625 13.1562ZM6.90625 10.8594C5.85417 10.8594 5.0625 10.5365 4.53125 9.89062C4 9.23958 3.73438 8.3724 3.73438 7.28906C3.73438 6.59635 3.85938 5.98438 4.10938 5.45312C4.36458 4.91667 4.73177 4.4974 5.21094 4.19531C5.69531 3.88802 6.28125 3.73438 6.96875 3.73438C7.3125 3.73438 7.65365 3.77604 7.99219 3.85938C8.33073 3.94271 8.64844 4.0599 8.94531 4.21094L8.50781 5.11719C8.2474 4.98177 7.98958 4.88021 7.73438 4.8125C7.47917 4.73958 7.22917 4.70312 6.98438 4.70312C6.32292 4.70312 5.8099 4.9349 5.44531 5.39844C5.08073 5.85677 4.89844 6.48698 4.89844 7.28906C4.89844 8.1224 5.0625 8.76302 5.39062 9.21094C5.72396 9.65885 6.2474 9.88281 6.96094 9.88281C7.22135 9.88281 7.5 9.84896 7.79688 9.78125C8.09896 9.71354 8.38542 9.625 8.65625 9.51562V10.4688C8.40104 10.5833 8.13802 10.6771 7.86719 10.75C7.59635 10.8229 7.27604 10.8594 6.90625 10.8594ZM6.65625 12.3594C7.34896 12.3594 7.9974 12.2344 8.60156 11.9844C9.21094 11.7344 9.74479 11.3828 10.2031 10.9297C10.6615 10.4714 11.0208 9.9349 11.2812 9.32031C11.5417 8.70052 11.6719 8.02344 11.6719 7.28906C11.6719 6.59115 11.5469 5.9375 11.2969 5.32812C11.0521 4.71875 10.7057 4.17969 10.2578 3.71094C9.8099 3.24219 9.27865 2.8776 8.66406 2.61719C8.05469 2.35156 7.38542 2.21875 6.65625 2.21875C5.92708 2.21875 5.25521 2.34375 4.64062 2.59375C4.03125 2.84375 3.5 3.19792 3.04688 3.65625C2.59896 4.10938 2.25 4.64583 2 5.26562C1.75521 5.88021 1.63281 6.55469 1.63281 7.28906C1.63281 7.98698 1.75521 8.64323 2 9.25781C2.24479 9.86719 2.59115 10.4062 3.03906 10.875C3.49219 11.3385 4.02344 11.7031 4.63281 11.9688C5.2474 12.2292 5.92188 12.3594 6.65625 12.3594ZM25.7422 13H18.2578V11.9141L21.3125 8.8125C21.8802 8.23958 22.3568 7.72917 22.7422 7.28125C23.1328 6.83333 23.4297 6.39323 23.6328 5.96094C23.8359 5.52344 23.9375 5.04427 23.9375 4.52344C23.9375 3.8776 23.7448 3.38542 23.3594 3.04688C22.9792 2.70312 22.4766 2.53125 21.8516 2.53125C21.3047 2.53125 20.8203 2.625 20.3984 2.8125C19.9766 3 19.5443 3.26562 19.1016 3.60938L18.4062 2.73438C18.7083 2.47917 19.0365 2.2526 19.3906 2.05469C19.75 1.85677 20.1328 1.70052 20.5391 1.58594C20.9505 1.47135 21.388 1.41406 21.8516 1.41406C22.5547 1.41406 23.1615 1.53646 23.6719 1.78125C24.1823 2.02604 24.5755 2.375 24.8516 2.82812C25.1328 3.28125 25.2734 3.82031 25.2734 4.44531C25.2734 5.04948 25.1536 5.61198 24.9141 6.13281C24.6745 6.64844 24.3385 7.16146 23.9062 7.67188C23.474 8.17708 22.9688 8.71354 22.3906 9.28125L19.9062 11.7578V11.8125H25.7422V13ZM34.9609 7.27344C34.9609 8.20052 34.8906 9.02865 34.75 9.75781C34.6094 10.487 34.388 11.1042 34.0859 11.6094C33.7839 12.1146 33.3932 12.5 32.9141 12.7656C32.4349 13.026 31.8594 13.1562 31.1875 13.1562C30.3385 13.1562 29.6354 12.9245 29.0781 12.4609C28.526 11.9974 28.112 11.3281 27.8359 10.4531C27.5651 9.57292 27.4297 8.51302 27.4297 7.27344C27.4297 6.05469 27.5521 5.00781 27.7969 4.13281C28.0469 3.2526 28.4479 2.57812 29 2.10938C29.5521 1.63542 30.2812 1.39844 31.1875 1.39844C32.0469 1.39844 32.7552 1.63281 33.3125 2.10156C33.8698 2.5651 34.2839 3.23698 34.5547 4.11719C34.8255 4.99219 34.9609 6.04427 34.9609 7.27344ZM28.7344 7.27344C28.7344 8.33594 28.8151 9.22135 28.9766 9.92969C29.138 10.638 29.3984 11.1693 29.7578 11.5234C30.1224 11.8724 30.599 12.0469 31.1875 12.0469C31.776 12.0469 32.25 11.8724 32.6094 11.5234C32.974 11.1745 33.237 10.6458 33.3984 9.9375C33.5651 9.22917 33.6484 8.34115 33.6484 7.27344C33.6484 6.22656 33.5677 5.35156 33.4062 4.64844C33.2448 3.9401 32.9844 3.40885 32.625 3.05469C32.2656 2.69531 31.7865 2.51562 31.1875 2.51562C30.5885 2.51562 30.1094 2.69531 29.75 3.05469C29.3906 3.40885 29.1302 3.9401 28.9688 4.64844C28.8125 5.35156 28.7344 6.22656 28.7344 7.27344ZM44.0547 13H36.5703V11.9141L39.625 8.8125C40.1927 8.23958 40.6693 7.72917 41.0547 7.28125C41.4453 6.83333 41.7422 6.39323 41.9453 5.96094C42.1484 5.52344 42.25 5.04427 42.25 4.52344C42.25 3.8776 42.0573 3.38542 41.6719 3.04688C41.2917 2.70312 40.7891 2.53125 40.1641 2.53125C39.6172 2.53125 39.1328 2.625 38.7109 2.8125C38.2891 3 37.8568 3.26562 37.4141 3.60938L36.7188 2.73438C37.0208 2.47917 37.349 2.2526 37.7031 2.05469C38.0625 1.85677 38.4453 1.70052 38.8516 1.58594C39.263 1.47135 39.7005 1.41406 40.1641 1.41406C40.8672 1.41406 41.474 1.53646 41.9844 1.78125C42.4948 2.02604 42.888 2.375 43.1641 2.82812C43.4453 3.28125 43.5859 3.82031 43.5859 4.44531C43.5859 5.04948 43.4661 5.61198 43.2266 6.13281C42.987 6.64844 42.651 7.16146 42.2188 7.67188C41.7865 8.17708 41.2812 8.71354 40.7031 9.28125L38.2188 11.7578V11.8125H44.0547V13ZM53.2109 13H45.7266V11.9141L48.7812 8.8125C49.349 8.23958 49.8255 7.72917 50.2109 7.28125C50.6016 6.83333 50.8984 6.39323 51.1016 5.96094C51.3047 5.52344 51.4062 5.04427 51.4062 4.52344C51.4062 3.8776 51.2135 3.38542 50.8281 3.04688C50.4479 2.70312 49.9453 2.53125 49.3203 2.53125C48.7734 2.53125 48.2891 2.625 47.8672 2.8125C47.4453 3 47.013 3.26562 46.5703 3.60938L45.875 2.73438C46.1771 2.47917 46.5052 2.2526 46.8594 2.05469C47.2188 1.85677 47.6016 1.70052 48.0078 1.58594C48.4193 1.47135 48.8568 1.41406 49.3203 1.41406C50.0234 1.41406 50.6302 1.53646 51.1406 1.78125C51.651 2.02604 52.0443 2.375 52.3203 2.82812C52.6016 3.28125 52.7422 3.82031 52.7422 4.44531C52.7422 5.04948 52.6224 5.61198 52.3828 6.13281C52.1432 6.64844 51.8073 7.16146 51.375 7.67188C50.9427 8.17708 50.4375 8.71354 49.8594 9.28125L47.375 11.7578V11.8125H53.2109V13ZM64.6953 2.58594C64.0651 2.58594 63.4974 2.69531 62.9922 2.91406C62.4922 3.1276 62.0651 3.4401 61.7109 3.85156C61.362 4.25781 61.0938 4.75 60.9062 5.32812C60.7188 5.90625 60.625 6.55729 60.625 7.28125C60.625 8.23958 60.7734 9.07292 61.0703 9.78125C61.3724 10.4844 61.8203 11.0286 62.4141 11.4141C63.013 11.7995 63.7604 11.9922 64.6562 11.9922C65.1667 11.9922 65.6458 11.9505 66.0938 11.8672C66.5469 11.7786 66.987 11.6693 67.4141 11.5391V12.6953C66.9974 12.8516 66.5599 12.9661 66.1016 13.0391C65.6432 13.1172 65.099 13.1562 64.4688 13.1562C63.3073 13.1562 62.3359 12.9167 61.5547 12.4375C60.7786 11.9531 60.1953 11.2708 59.8047 10.3906C59.4193 9.51042 59.2266 8.47135 59.2266 7.27344C59.2266 6.40885 59.3464 5.61979 59.5859 4.90625C59.8307 4.1875 60.1849 3.56771 60.6484 3.04688C61.1172 2.52604 61.6901 2.125 62.3672 1.84375C63.0495 1.55729 63.8307 1.41406 64.7109 1.41406C65.2891 1.41406 65.8464 1.47135 66.3828 1.58594C66.9193 1.70052 67.4036 1.86458 67.8359 2.07812L67.3047 3.20312C66.9401 3.03646 66.5391 2.89323 66.1016 2.77344C65.6693 2.64844 65.2005 2.58594 64.6953 2.58594ZM77.0781 8.70312C77.0781 9.40625 76.987 10.0339 76.8047 10.5859C76.6224 11.138 76.3594 11.6042 76.0156 11.9844C75.6719 12.3646 75.2552 12.6562 74.7656 12.8594C74.2812 13.0573 73.7318 13.1562 73.1172 13.1562C72.5443 13.1562 72.0182 13.0573 71.5391 12.8594C71.0651 12.6562 70.6536 12.3646 70.3047 11.9844C69.9609 11.6042 69.6927 11.138 69.5 10.5859C69.3125 10.0339 69.2188 9.40625 69.2188 8.70312C69.2188 7.76562 69.3776 6.96875 69.6953 6.3125C70.013 5.65104 70.4661 5.14844 71.0547 4.80469C71.6484 4.45573 72.3542 4.28125 73.1719 4.28125C73.9531 4.28125 74.6354 4.45573 75.2188 4.80469C75.8073 5.15365 76.263 5.65885 76.5859 6.32031C76.9141 6.97656 77.0781 7.77083 77.0781 8.70312ZM70.5625 8.70312C70.5625 9.39062 70.6536 9.98698 70.8359 10.4922C71.0182 10.9974 71.2995 11.388 71.6797 11.6641C72.0599 11.9401 72.5495 12.0781 73.1484 12.0781C73.7422 12.0781 74.2292 11.9401 74.6094 11.6641C74.9948 11.388 75.2786 10.9974 75.4609 10.4922C75.6432 9.98698 75.7344 9.39062 75.7344 8.70312C75.7344 8.02083 75.6432 7.43229 75.4609 6.9375C75.2786 6.4375 74.9974 6.05208 74.6172 5.78125C74.237 5.51042 73.7448 5.375 73.1406 5.375C72.25 5.375 71.5964 5.66927 71.1797 6.25781C70.7682 6.84635 70.5625 7.66146 70.5625 8.70312ZM83.2109 4.28125C83.3828 4.28125 83.5625 4.29167 83.75 4.3125C83.9375 4.32812 84.1042 4.35156 84.25 4.38281L84.0859 5.58594C83.9453 5.54948 83.7891 5.52083 83.6172 5.5C83.4453 5.47917 83.2839 5.46875 83.1328 5.46875C82.7891 5.46875 82.4635 5.53906 82.1562 5.67969C81.8542 5.8151 81.5885 6.01302 81.3594 6.27344C81.1302 6.52865 80.9505 6.83854 80.8203 7.20312C80.6901 7.5625 80.625 7.96354 80.625 8.40625V13H79.3203V4.4375H80.3984L80.5391 6.01562H80.5938C80.7708 5.69792 80.9844 5.40885 81.2344 5.14844C81.4844 4.88281 81.7734 4.67188 82.1016 4.51562C82.4349 4.35938 82.8047 4.28125 83.2109 4.28125ZM89.0703 4.29688C90.0911 4.29688 90.849 4.52604 91.3438 4.98438C91.8385 5.44271 92.0859 6.17448 92.0859 7.17969V13H91.1406L90.8906 11.7344H90.8281C90.5885 12.0469 90.3385 12.3099 90.0781 12.5234C89.8177 12.7318 89.5156 12.8906 89.1719 13C88.8333 13.1042 88.4167 13.1562 87.9219 13.1562C87.401 13.1562 86.9375 13.0651 86.5312 12.8828C86.1302 12.7005 85.8125 12.4245 85.5781 12.0547C85.349 11.6849 85.2344 11.2161 85.2344 10.6484C85.2344 9.79427 85.5729 9.13802 86.25 8.67969C86.9271 8.22135 87.9583 7.97135 89.3438 7.92969L90.8203 7.86719V7.34375C90.8203 6.60417 90.6615 6.08594 90.3438 5.78906C90.026 5.49219 89.5781 5.34375 89 5.34375C88.5521 5.34375 88.125 5.40885 87.7188 5.53906C87.3125 5.66927 86.9271 5.82292 86.5625 6L86.1641 5.01562C86.5495 4.81771 86.9922 4.64844 87.4922 4.50781C87.9922 4.36719 88.5182 4.29688 89.0703 4.29688ZM90.8047 8.78125L89.5 8.83594C88.4323 8.8776 87.6797 9.05208 87.2422 9.35938C86.8047 9.66667 86.5859 10.1016 86.5859 10.6641C86.5859 11.1536 86.7344 11.5156 87.0312 11.75C87.3281 11.9844 87.7214 12.1016 88.2109 12.1016C88.9714 12.1016 89.5938 11.8906 90.0781 11.4688C90.5625 11.0469 90.8047 10.4141 90.8047 9.57031V8.78125ZM96.0625 13H94.7578V0.84375H96.0625V13ZM104.445 11.1406L104.547 11.3203C104.453 11.7005 104.333 12.1068 104.188 12.5391C104.047 12.9714 103.891 13.4036 103.719 13.8359C103.552 14.2734 103.383 14.6823 103.211 15.0625H102.242C102.352 14.6458 102.458 14.2057 102.562 13.7422C102.667 13.2839 102.76 12.8307 102.844 12.3828C102.932 11.9297 103.003 11.5156 103.055 11.1406H104.445ZM111.453 13V1.57812H112.781V13H111.453ZM119.781 4.28125C120.797 4.28125 121.565 4.53125 122.086 5.03125C122.607 5.52604 122.867 6.32292 122.867 7.42188V13H121.586V7.50781C121.586 6.79427 121.422 6.26042 121.094 5.90625C120.771 5.55208 120.273 5.375 119.602 5.375C118.654 5.375 117.987 5.64323 117.602 6.17969C117.216 6.71615 117.023 7.49479 117.023 8.51562V13H115.727V4.4375H116.773L116.969 5.67188H117.039C117.221 5.36979 117.453 5.11719 117.734 4.91406C118.016 4.70573 118.331 4.54948 118.68 4.44531C119.029 4.33594 119.396 4.28125 119.781 4.28125ZM128.969 13.1562C128.198 13.1562 127.518 12.9974 126.93 12.6797C126.341 12.362 125.883 11.8776 125.555 11.2266C125.227 10.5755 125.062 9.75521 125.062 8.76562C125.062 7.72917 125.234 6.88281 125.578 6.22656C125.927 5.5651 126.406 5.07552 127.016 4.75781C127.625 4.4401 128.318 4.28125 129.094 4.28125C129.521 4.28125 129.932 4.32552 130.328 4.41406C130.729 4.4974 131.057 4.60417 131.312 4.73438L130.922 5.82031C130.661 5.71615 130.359 5.6224 130.016 5.53906C129.677 5.45573 129.359 5.41406 129.062 5.41406C128.469 5.41406 127.974 5.54167 127.578 5.79688C127.188 6.05208 126.893 6.42708 126.695 6.92188C126.503 7.41667 126.406 8.02604 126.406 8.75C126.406 9.44271 126.5 10.0339 126.688 10.5234C126.88 11.013 127.164 11.388 127.539 11.6484C127.919 11.9036 128.393 12.0312 128.961 12.0312C129.414 12.0312 129.823 11.9844 130.188 11.8906C130.552 11.7917 130.883 11.6771 131.18 11.5469V12.7031C130.893 12.849 130.573 12.9609 130.219 13.0391C129.87 13.1172 129.453 13.1562 128.969 13.1562ZM133.016 12.1875C133.016 11.8229 133.104 11.5651 133.281 11.4141C133.458 11.2578 133.674 11.1797 133.93 11.1797C134.195 11.1797 134.419 11.2578 134.602 11.4141C134.784 11.5651 134.875 11.8229 134.875 12.1875C134.875 12.5469 134.784 12.8099 134.602 12.9766C134.419 13.138 134.195 13.2188 133.93 13.2188C133.674 13.2188 133.458 13.138 133.281 12.9766C133.104 12.8099 133.016 12.5469 133.016 12.1875Z" fill="white"/>
</svg>
