<svg width="30" height="30" viewBox="0 0 30 30" fill="none" xmlns="http://www.w3.org/2000/svg">
<g clip-path="url(#clip0_638_9372)">
<path d="M15 30C23.2843 30 30 23.2843 30 15C30 6.71573 23.2843 0 15 0C6.71573 0 0 6.71573 0 15C0 23.2843 6.71573 30 15 30Z" fill="#6F3FAA"/>
<path d="M22.9351 10.5424L22.9302 10.5226C22.5294 8.90232 20.7225 7.16373 19.0631 6.80203L19.0445 6.79816C16.3605 6.28617 13.6391 6.28617 10.9558 6.79816L10.9365 6.80203C9.2777 7.16373 7.47072 8.90244 7.06941 10.5226L7.06496 10.5424C6.56949 12.8051 6.56949 15.0999 7.06496 17.3626L7.06941 17.3824C7.45367 18.9335 9.126 20.5923 10.7234 21.0485V22.8571C10.7234 23.5118 11.5212 23.8333 11.9748 23.3609L13.8073 21.456C14.2048 21.4782 14.6025 21.4907 15.0001 21.4907C16.3511 21.4907 17.7027 21.3629 19.0444 21.1069L19.0631 21.1031C20.7225 20.7414 22.5294 19.0027 22.9302 17.3825L22.9351 17.3627C23.4305 15.0999 23.4305 12.8053 22.9351 10.5424ZM21.4849 17.0345C21.2173 18.0916 19.8454 19.4058 18.7553 19.6486C17.3282 19.92 15.8898 20.036 14.4529 19.9962C14.4243 19.9954 14.3968 20.0065 14.3769 20.027C14.173 20.2363 13.0389 21.4005 13.0389 21.4005L11.6158 22.8612C11.5118 22.9697 11.3289 22.8958 11.3289 22.7461V19.7498C11.3289 19.7003 11.2936 19.6583 11.245 19.6487C11.2447 19.6486 11.2445 19.6486 11.2442 19.6485C10.1541 19.4057 8.78264 18.0916 8.51457 17.0345C8.06861 14.9892 8.06861 12.9158 8.51457 10.8705C8.78264 9.81346 10.1541 8.49932 11.2442 8.2565C13.7365 7.78248 16.2635 7.78248 18.7554 8.2565C19.846 8.49932 21.2173 9.81346 21.4849 10.8705C21.9314 12.9159 21.9314 14.9893 21.4849 17.0345Z" fill="white"/>
<path d="M17.3709 18.4176C17.2033 18.3667 17.0437 18.3325 16.8952 18.2711C15.3583 17.6334 13.9438 16.8107 12.8234 15.5497C12.1863 14.8327 11.6876 14.0231 11.2661 13.1663C11.0662 12.76 10.8977 12.3379 10.726 11.9183C10.5694 11.5358 10.8 11.1407 11.0428 10.8524C11.2707 10.5819 11.564 10.3749 11.8815 10.2223C12.1294 10.1032 12.3738 10.1719 12.5549 10.3819C12.9462 10.8362 13.3057 11.3136 13.5967 11.8401C13.7757 12.1639 13.7266 12.5598 13.4022 12.7802C13.3233 12.8337 13.2515 12.8967 13.178 12.9571C13.1136 13.0102 13.053 13.0637 13.0088 13.1355C12.9281 13.2668 12.9243 13.4218 12.9762 13.5646C13.3762 14.6638 14.0504 15.5187 15.157 15.9792C15.3341 16.0529 15.5118 16.1386 15.7159 16.1149C16.0575 16.075 16.1681 15.7002 16.4075 15.5044C16.6415 15.3131 16.9405 15.3106 17.1925 15.4701C17.4447 15.6297 17.689 15.8009 17.9319 15.9741C18.1704 16.144 18.4078 16.3101 18.6277 16.5039C18.8392 16.6901 18.912 16.9345 18.7929 17.1872C18.5749 17.6501 18.2577 18.0352 17.8001 18.281C17.6709 18.3503 17.5166 18.3727 17.3709 18.4176C17.5166 18.3727 17.2033 18.3667 17.3709 18.4176Z" fill="white"/>
<path d="M15.0039 9.69293C17.0142 9.74929 18.6654 11.0834 19.0193 13.0709C19.0796 13.4096 19.101 13.7558 19.1278 14.0995C19.1391 14.2441 19.0572 14.3814 18.9013 14.3834C18.7401 14.3853 18.6676 14.2504 18.6571 14.106C18.6364 13.8199 18.6221 13.5325 18.5826 13.2489C18.3746 11.7513 17.1804 10.5124 15.6898 10.2465C15.4654 10.2065 15.236 10.196 15.0087 10.1722C14.8651 10.1571 14.677 10.1484 14.6452 9.96984C14.6185 9.82013 14.7448 9.70095 14.8874 9.69328C14.926 9.69099 14.965 9.69281 15.0039 9.69293C17.0143 9.74929 14.965 9.69281 15.0039 9.69293Z" fill="white"/>
<path d="M18.059 13.6535C18.0557 13.6786 18.054 13.7376 18.0392 13.7931C17.9859 13.9949 17.6798 14.0202 17.6094 13.8166C17.5885 13.7562 17.5854 13.6874 17.5853 13.6223C17.5846 13.1966 17.4921 12.7712 17.2773 12.4007C17.0566 12.0199 16.7193 11.6999 16.3239 11.5062C16.0847 11.3891 15.8261 11.3163 15.564 11.273C15.4494 11.254 15.3337 11.2426 15.2185 11.2265C15.079 11.2071 15.0045 11.1182 15.0112 10.9808C15.0173 10.852 15.1115 10.7592 15.2519 10.7672C15.7132 10.7934 16.1588 10.8932 16.569 11.1104C17.4031 11.5521 17.8796 12.2493 18.0187 13.1803C18.0249 13.2225 18.035 13.2642 18.0382 13.3065C18.0461 13.4109 18.0511 13.5155 18.059 13.6535C18.0557 13.6785 18.0511 13.5155 18.059 13.6535Z" fill="white"/>
<path d="M16.8089 13.6048C16.6407 13.6078 16.5507 13.5146 16.5333 13.3605C16.5213 13.2531 16.5117 13.1441 16.486 13.0395C16.4355 12.8334 16.326 12.6425 16.1527 12.5162C16.0709 12.4566 15.9781 12.4132 15.881 12.3851C15.7577 12.3494 15.6295 12.3592 15.5065 12.3291C15.3729 12.2964 15.2989 12.1881 15.3199 12.0628C15.3391 11.9486 15.45 11.8596 15.5748 11.8686C16.3542 11.9249 16.9112 12.3278 16.9908 13.2454C16.9964 13.3102 17.003 13.3785 16.9886 13.4406C16.9639 13.5465 16.8854 13.5996 16.8089 13.6048C16.8854 13.5996 16.6407 13.6078 16.8089 13.6048Z" fill="white"/>
<path d="M17.3711 18.4176C17.2035 18.3667 17.5168 18.3727 17.3711 18.4176V18.4176Z" fill="white"/>
<path d="M15.0095 9.69324C15.0078 9.69324 15.0062 9.69307 15.0045 9.69307C15.0028 9.69295 15.0049 9.69307 15.0095 9.69324Z" fill="white"/>
<path d="M15.0049 9.69293C15.0066 9.69293 15.0082 9.6931 15.0099 9.6931C15.1215 9.69709 16.936 9.74707 15.0049 9.69293Z" fill="white"/>
<path d="M18.0601 13.6535C18.0521 13.5155 18.0567 13.6785 18.0601 13.6535V13.6535Z" fill="white"/>
<path d="M16.8096 13.6048C16.8122 13.6046 16.8147 13.6032 16.8173 13.6029C16.8102 13.6029 16.7993 13.6031 16.7881 13.6035C16.7954 13.6037 16.802 13.6048 16.8096 13.6048Z" fill="white"/>
<path d="M16.8094 13.6048C16.8018 13.6049 16.7952 13.6038 16.7879 13.6035C16.7515 13.6045 16.7139 13.6065 16.8094 13.6048Z" fill="white"/>
<path d="M16.8172 13.6029C16.8146 13.6032 16.8121 13.6046 16.8096 13.6048C16.8293 13.6034 16.8276 13.6029 16.8172 13.6029Z" fill="white"/>
</g>
<defs>
<clipPath id="clip0_638_9372">
<rect width="30" height="30" fill="white"/>
</clipPath>
</defs>
</svg>
