<svg width="300" height="325" viewBox="0 0 300 325" fill="none" xmlns="http://www.w3.org/2000/svg">
<g clip-path="url(#clip0_505_828)">
<path d="M119.905 302.179C121.18 298.836 123.172 295.815 125.741 293.329C128.31 290.843 131.394 288.952 134.775 287.789C137.024 287.011 139.163 285.826 141.343 284.84C139.346 283.907 137.184 283.384 134.983 283.303C129.777 283.117 124.848 280.895 121.256 277.113C120.555 276.054 120.086 274.859 119.879 273.606C119.672 272.353 119.732 271.071 120.056 269.844C120.709 267.458 123.532 268.531 125.327 269.281C131.148 271.601 137.536 273.271 142.539 276.832C149.094 281.581 156.244 281.57 163.479 282.478C151.955 277.444 142.287 268.932 135.828 258.133C134.368 255.603 132.755 255.641 130.461 256.643C125.001 258.979 118.837 259.064 113.308 256.877C107.78 254.69 103.334 250.408 100.937 244.963C100.404 243.783 100.172 241.709 100.849 240.995C101.435 240.614 102.094 240.36 102.784 240.248C103.474 240.136 104.179 240.168 104.856 240.344C108.599 241.036 112.292 242.029 115.998 242.915L116.685 242.99L116.077 242.622C115.463 241.834 114.788 241.096 114.059 240.414C109.197 236.08 105.717 230.41 104.053 224.113C103.864 222.668 103.931 221.202 104.252 219.782C105.453 219.932 106.833 219.705 107.814 220.205C114.628 223.405 120.617 228.128 125.319 234.012C124.333 229.832 123.66 225.585 123.308 221.306C123.236 214.912 121.193 208.693 117.459 203.499C115.44 199.881 113.607 196.162 111.967 192.357C111.462 191.482 109.95 190.321 109.211 190.5C94.8729 194.016 83.576 185.729 71.4157 180.793C68.8372 179.801 68.9146 177.276 71.5126 175.9C73.6647 174.706 76.0338 173.954 78.4812 173.688C88.0548 173.09 97.6016 175.269 105.976 179.965C104.281 174.841 102.39 170.278 101.266 165.544C99.7745 159.186 99.2858 152.721 102.402 146.581C103.853 143.734 106.048 142.988 107.852 144.997C110.147 147.385 112.075 150.101 113.57 153.057C115.524 157.305 116.606 161.902 116.751 166.573C116.896 171.245 116.101 175.897 114.414 180.253C113.61 182.242 113.341 184.407 113.632 186.534C115.165 193.206 118.059 199.49 122.135 204.992C123.339 198.07 124.343 191.661 125.673 185.386C128.198 174.001 132.417 163.062 138.187 152.934C138.928 151.842 139.316 150.549 139.297 149.228C139.279 147.908 138.856 146.624 138.085 145.551C136.006 142.336 134.25 138.91 132.227 135.662C127.353 127.735 122.024 120.393 111.5 119.921C111.166 119.886 110.839 119.798 110.533 119.661C103.997 117.542 98.4926 113.044 95.1098 107.058C93.606 104.454 94.7297 102.54 97.6849 102.297C98.6753 102.328 99.6587 102.476 100.614 102.739C108.409 104.317 115.822 106.734 121.414 112.088C121.735 107.823 122.321 103.582 123.171 99.3904C123.607 97.7002 126.006 96.538 127.527 95.1394C128.952 96.3341 130.147 97.7794 131.053 99.4038C133.413 106.922 133.673 114.363 129.199 121.411C128.9 122.048 128.754 122.746 128.774 123.45C128.793 124.154 128.977 124.844 129.31 125.464C133.122 131.722 137.145 137.833 141.187 143.934C141.37 144.25 143.054 144.121 143.145 143.895C145.246 137.969 148.199 132.146 149.011 126.046C150.477 114.732 144.551 106.098 136.466 98.7846C124.902 88.3201 103.268 81.8587 88.2393 92.8425C86.5218 94.0053 85.1789 95.6424 84.3733 97.5551C82.9198 101.244 80.8748 104.67 78.3189 107.699C73.6034 112.533 68.636 117.115 63.4375 121.425C62.325 122.415 60.1863 123.6 59.2845 123.153C58.5517 122.678 57.9227 122.059 57.4359 121.334C56.949 120.609 56.6145 119.792 56.4524 118.934C56.0292 116.218 56.2101 113.442 56.982 110.805C57.7539 108.168 59.098 105.735 60.9183 103.68C64.6455 98.8986 69.9988 96.6761 75.314 94.3019L75.5554 94.1626L75.314 94.3019L69.3509 94.396C65.444 94.5158 61.5626 93.7121 58.0215 92.05C54.4804 90.3879 51.3794 87.9142 48.9702 84.8297C45.3809 80.3285 46.8129 77.3188 52.482 76.9729C56.6475 76.6242 60.8383 76.6979 64.9903 77.1929C73.1076 78.3854 80.5675 81.0985 84.2088 89.4642C85.0601 91.4533 86.1442 90.6289 87.3035 89.9348C99.6735 82.4953 112.413 82.7304 125.409 88.1264C127.745 89.0846 130.066 90.1014 132.375 91.0997C131.995 90.4398 131.528 89.8333 130.988 89.2963C121.995 82.085 113.192 74.343 101.335 71.862C92.2717 69.9752 86.3975 63.618 81.2888 56.5708C80.3346 55.2612 80.8809 52.8621 80.7274 50.9663C82.2989 50.8287 83.8817 50.89 85.4385 51.1486C94.7978 53.8184 103.466 58.4982 110.838 64.8619C110.676 62.8223 110.47 61.0066 110.378 59.1745C109.922 53.8154 111.491 48.4832 114.776 44.2322C117.943 40.196 121.704 40.4059 122.997 44.9183C124.601 50.4636 125.601 56.1653 125.981 61.924C126.175 64.188 125.804 66.4639 124.903 68.5476C124.001 70.6312 122.596 72.4573 120.814 73.862C118.195 75.8453 118.925 76.4659 121.105 77.7123C123.155 78.8043 125.073 80.1269 126.823 81.6543C130.855 85.2811 134.671 89.1409 138.251 93.214C140.896 96.698 143.323 100.342 145.517 104.126C146.093 101.531 146.364 98.8767 146.325 96.2178C147.135 86.1256 151.528 82.4977 158.217 80.273C161.92 79.0527 163.167 80.268 162.878 84.0564C161.917 93.715 159.417 102.724 151.395 109.117C150.194 110.083 149.774 110.598 150.48 112.25C152.068 115.75 152.918 119.54 152.976 123.382C153.034 127.225 152.299 131.036 150.817 134.579C147.619 142.378 143.89 149.988 140.133 157.59C136.065 165.249 133.122 173.456 131.395 181.959C134.175 180.561 136.754 178.797 139.064 176.713C145.181 170.924 150.824 164.614 157.241 159.173C159.039 157.883 160.393 156.067 161.118 153.974C161.843 151.881 161.903 149.614 161.289 147.484C160.26 142.465 159.708 137.359 159.642 132.237C159.691 129.401 160.301 126.603 161.437 124.006C162.573 121.409 164.211 119.064 166.259 117.105C168.938 114.368 171.288 114.921 172.623 118.392C172.94 119.334 173.176 120.302 173.327 121.285C175.064 130.546 174.082 140.108 170.501 148.814L175.569 147.128C181.544 145.167 187.56 144.05 193.436 147.107C194.272 147.491 195.017 148.05 195.619 148.746C196.222 149.442 196.669 150.259 196.93 151.142C196.737 152.07 196.343 152.944 195.774 153.701C195.205 154.458 194.476 155.08 193.639 155.523C189.727 157.716 185.418 159.11 180.961 159.622C176.504 160.134 171.989 159.755 167.677 158.506C166.37 158.02 164.947 157.94 163.595 158.278C162.244 158.615 161.026 159.355 160.103 160.398C154.287 166.237 148.471 172.075 142.502 177.779C139.412 180.704 136.483 183.908 131.851 184.722C131.202 184.988 130.628 185.409 130.18 185.949C129.732 186.489 129.423 187.131 129.281 187.818C128.342 197.042 126.82 206.33 127.11 215.539C127.454 232.256 133.109 248.436 143.256 261.733C146.819 266.447 154.779 273.114 159.07 274.456C158.212 272.198 157.218 269.746 156.345 267.248C155.31 263.453 152.884 260.186 149.552 258.098C145.226 255.513 141.872 251.572 140.009 246.888C138.27 242.633 137.495 238.244 139.673 233.911C141.738 229.94 144.6 229.577 146.472 233.507C148.732 238.289 150.687 243.208 152.326 248.236C153.375 251.252 153.886 254.454 154.642 257.565L155.719 257.415C155.651 255.668 155.661 253.926 155.527 252.192C154.826 242.873 159.596 238.482 166.609 234.458C168.317 233.472 170.301 233.219 170.184 236.362C170.092 245.767 168.677 254.597 160.238 260.61C159.707 261.043 159.281 261.591 158.992 262.213C158.704 262.835 158.56 263.515 158.572 264.201C160.256 274.194 165.808 279.521 175.745 281.077C177.384 281.351 179.045 281.472 180.707 281.437C207.878 280.633 227.129 267.484 238.84 243.334C243.138 234.995 244.688 225.504 243.268 216.22C242.469 211.447 240.346 207.513 235.848 205.769C229.854 203.45 223.585 201.686 217.405 199.946C216.299 199.617 214.657 200.59 213.479 201.295C208 204.458 202.855 208.198 197.295 211.135C191.735 214.072 185.578 215.246 179.794 211.317C178.039 210.122 175.163 208.658 176.311 205.886C177.461 204.224 179.15 203.012 181.092 202.456C187.579 199.926 194.151 197.67 200.492 195.398C197.526 192.621 194.797 190.252 192.354 187.694C192.045 187.236 191.848 186.712 191.782 186.164C191.715 185.615 191.78 185.06 191.97 184.542C192.27 183.947 193.924 183.637 194.878 183.83C203.242 185.451 211.53 187.239 216.699 195.12C217.304 195.92 218.152 196.501 219.116 196.776C225.579 198.749 232.074 200.606 238.71 202.579C233.783 195.501 228.446 188.66 221.04 183.981C215.852 180.701 210.45 177.692 204.125 177.202C192.339 176.217 181.917 179.953 172.325 186.458C171.989 186.761 171.719 187.129 171.531 187.541C171.343 187.952 171.241 188.398 171.231 188.851C171.161 195.464 167.757 200.506 163.718 205.219C159.679 209.932 155.869 214.141 151.818 218.489C150.745 219.379 149.558 220.123 148.29 220.7C147.435 219.395 146.805 217.956 146.426 216.443C145.918 208.385 148.583 200.452 153.85 194.346C154.281 193.849 154.774 193.416 155.176 192.911C155.578 192.406 155.675 192.102 155.508 192.371C151.154 192.206 146.723 192.21 142.325 191.797C141.727 191.622 141.179 191.307 140.725 190.879C140.272 190.451 139.925 189.922 139.715 189.335C139.49 188.646 140.515 187.161 141.385 186.609C144.442 184.311 147.765 182.392 151.284 180.894C156.775 179.039 162.538 177.87 167.748 182.304C168.207 182.536 168.712 182.664 169.226 182.68C169.74 182.697 170.251 182.6 170.723 182.396C173.48 181.252 176.123 179.825 178.833 178.558C188.828 173.953 199.126 171.803 210.088 174.577C209.258 173.568 208.457 172.567 207.608 171.569C205.154 168.96 203.324 165.829 202.255 162.41C201.187 158.992 200.909 155.376 201.441 151.837C201.923 148.855 203.359 148.125 205.284 149.916C213.068 156.507 218.265 165.646 219.951 175.705C220.052 176.861 220.421 177.977 221.03 178.965C221.64 179.953 222.471 180.785 223.459 181.394C232.552 188.051 240.049 195.976 244.121 206.847C246.993 214.574 247.94 222.883 246.879 231.053C249.232 225.477 251.374 219.924 253.144 214.239C254.204 210.799 256.17 206.613 255.045 203.765C254.093 201.214 249.647 199.861 246.649 198.144C238.266 193.359 233.916 186.296 234.448 176.538C234.563 174.164 234.202 170.751 237.218 170.399C238.774 170.22 241.088 172.556 242.363 174.25C246.38 179.621 250.084 185.222 254.13 191.071C253.558 187.403 254.233 183.65 256.049 180.416C257.864 177.182 260.713 174.654 264.139 173.237C265.381 172.644 267.631 171.866 268.105 172.386C268.993 173.628 269.412 175.144 269.288 176.665C268.624 186.152 264.772 194.577 260.75 203.051C258.507 207.744 256.933 212.696 255.042 217.484C258.529 216.017 261.057 214.135 263.815 212.692C266.497 211.186 269.453 210.232 272.51 209.885C275.567 209.538 278.664 209.807 281.618 210.674C282.199 210.893 282.729 211.232 283.172 211.668C283.616 212.104 283.964 212.627 284.194 213.205C284.418 213.894 283.414 215.243 282.641 215.962C281.034 217.418 279.319 218.749 277.509 219.942C271.964 223.59 266.356 227.944 259.355 227.099C253.505 226.359 250.96 228.3 248.912 233.501C247.11 238.014 243.408 241.639 241.345 246.13C235.211 259.445 224.975 270.44 212.138 277.504C196.68 285.858 179.712 287.22 162.493 285.875C159.357 285.518 156.246 284.97 153.176 284.234C150.861 283.785 149.446 283.907 148.57 286.893C147.351 290.063 145.561 292.98 143.288 295.5C137.719 301.939 129.088 302.086 121.86 305.093C119.648 306.023 118.958 304.313 119.905 302.179ZM117.927 247.284C113.877 245.976 109.64 245.198 104.694 244.009C108.966 252.78 121.11 257.601 129.478 254.382C130.004 254.056 130.467 253.638 130.845 253.147C130.401 252.692 129.898 252.298 129.351 251.975C125.468 250.397 121.755 248.597 117.834 247.338L117.927 247.284ZM107.551 223.781C110.947 234.595 118.249 240.252 127.365 245.233C123.779 235.075 116.794 229.11 107.458 223.834L107.551 223.781ZM107.921 149.149C107.356 148.411 106.543 147.902 105.633 147.717C105.314 147.678 104.559 148.858 104.259 149.626C101.944 156.768 103.404 163.714 105.768 170.51C106.932 173.857 108.529 177.052 110.321 181.227C115.461 169.329 114.431 159.009 107.839 149.222L107.921 149.149ZM121.323 116.606C115.36 109.879 107.679 106.698 98.4418 105.581C99.3599 107.7 100.695 109.612 102.367 111.204C104.039 112.796 106.014 114.034 108.174 114.846C111.972 116.449 115.98 117.558 119.908 118.787C120.686 118.905 121.477 118.9 122.253 118.773C122.005 118.004 121.629 117.281 121.143 116.636L121.323 116.606ZM129.22 114.329C130.661 109.194 130.139 103.703 127.757 98.926C126.697 101.197 125.907 103.585 125.401 106.041C125.334 108.846 125.598 111.649 126.187 114.393C126.479 115.694 126.862 116.974 127.333 118.222C128.027 116.993 128.599 115.699 129.04 114.359L129.22 114.329ZM63.3133 106.241C61.7513 109.095 60.5129 112.114 59.6212 115.244C59.2836 116.332 59.9641 117.725 60.1756 118.992L63.536 117.35C69.5551 112.163 76.435 107.224 80.4314 99.4341C80.9436 98.5984 81.3197 97.6863 81.5456 96.7319C81.5995 96.3535 80.2133 95.3678 80.0647 95.4536C74.3902 99.3499 66.8789 100.065 63.1325 106.271L63.3133 106.241ZM72.6953 82.5179C66.3446 79.7102 59.5295 79.7008 52.7239 80.0083C51.96 80.1649 51.2271 80.4456 50.5541 80.8393C50.7767 81.7107 51.1387 82.5404 51.626 83.2964C55.3094 87.6352 60.5506 90.3488 66.2136 90.8492C70.1107 91.0798 74.1409 90.8119 78.078 91.069C82.0151 91.3261 81.1694 89.9042 80.0087 87.2504C77.6521 85.4674 75.1445 83.8938 72.5145 82.5479L72.6953 82.5179ZM109.626 69.2824C106.066 66.1191 102.321 63.1704 98.4119 60.452C94.6791 58.283 90.7993 56.3785 86.8011 54.7526C86.0245 54.5403 85.2225 54.4358 84.4178 54.4418L84.7792 56.9121C88.4717 61.9369 93.5399 65.7837 99.3692 67.986C102.397 68.9416 105.324 69.9801 108.323 70.9279C108.788 71.0031 109.261 71.0139 109.728 70.96C109.704 70.4034 109.817 69.5693 109.483 69.2909L109.626 69.2824ZM117.604 72.2918C119.68 70.2362 121.331 67.7911 122.463 65.0959C124.378 58.8057 122 52.7126 120.481 46.6935C119.586 44.4568 118.003 44.6757 117.235 46.2607C115.461 49.2118 114.288 52.4856 113.783 55.8938C113.885 61.0039 114.346 66.1009 115.161 71.1476C115.173 73.0999 116.294 73.6684 117.461 72.3003L117.604 72.2918ZM132.6 91.3172C132.74 91.5591 133.009 91.7259 133.223 91.9249C133.159 91.8132 133.232 91.5972 133.192 91.5707C133.001 91.4726 132.803 91.3878 132.6 91.3172ZM151.364 105.289C155.181 100.904 157.793 95.6011 158.946 89.8986C159.129 89.0919 159.243 88.2708 159.287 87.4443C159.357 86.0644 159.312 84.7009 159.372 83.3024L154.1 84.3367C152.345 87.263 150.909 90.3705 149.819 93.6053C149.269 97.198 149.097 100.839 149.306 104.469C149.37 105.045 149.527 105.608 149.772 106.134C150.353 105.96 150.894 105.673 151.364 105.289ZM191.142 153.169C191.942 152.64 192.706 152.058 193.429 151.427C192.523 150.759 191.623 149.543 190.718 149.519C186.495 149.274 182.259 149.451 178.073 150.048C174.482 151.121 171.002 152.532 167.679 154.263L168.124 155.42C175.929 156.371 183.752 157.312 191.12 153.132L191.142 153.169ZM168.557 144.975C171.174 137.271 171.716 129.009 170.13 121.022C169.654 119.953 169.067 118.937 168.379 117.99C166.623 121.092 165.026 124.282 163.596 127.548C161.481 133.234 162.783 139.006 163.763 144.692C164.127 146.739 164.728 148.723 165.226 150.743C166.516 148.93 167.631 146.999 168.557 144.975ZM105.727 183.607C98.1131 178.835 89.2455 176.461 80.275 176.794C78.2052 176.898 76.1714 177.278 74.1104 177.526C83.5531 182.344 92.6192 187.925 103.523 188.153C103.852 188.199 104.187 188.183 104.51 188.104C106.125 187.47 107.707 186.779 109.3 186.108C108.141 185.185 106.934 184.325 105.684 183.532L105.727 183.607ZM161.073 255.837C163.095 253.683 164.664 251.145 165.687 248.373C166.711 245.6 167.168 242.65 167.032 239.695C167.036 239.445 165.636 238.864 165.169 239.084C163.502 239.807 162.051 240.951 160.958 242.404C159.866 243.856 159.168 245.568 158.935 247.372C158.723 250.303 158.709 253.245 158.893 256.178C159.903 256.041 160.737 256.155 161.127 255.93L161.073 255.837ZM195.806 200.708C191.268 202.112 186.817 203.839 182.331 205.462C181.602 205.763 180.895 206.113 180.213 206.511C180.661 207.319 181.259 208.035 181.975 208.619C184.188 209.746 186.657 210.273 189.135 210.147C191.613 210.022 194.014 209.25 196.099 207.906C201.478 204.999 206.685 201.794 212.034 198.706C206.235 196.597 201.051 199.069 195.806 200.708ZM197.823 186.744L197.228 188.03C201.093 191.851 205.471 194.458 211.129 194.094L211.653 192.899L197.823 186.744ZM163.218 183.207C157.613 181.606 152.524 183.428 146.887 185.889L145.037 188.346C146.122 188.637 147.31 189.365 148.296 189.143C153.386 187.966 158.435 186.589 163.484 185.212C163.923 184.995 164.31 184.686 164.621 184.307C164.156 183.931 163.745 183.349 163.218 183.207ZM163.079 190.729C155.386 196.535 149.42 204.172 149.945 215.503C156.481 208.38 163.49 202.721 167.07 194.254C167.654 192.406 168.066 190.507 168.302 188.582C166.468 189.055 164.699 189.751 163.036 190.655L163.079 190.729ZM204.639 153.215C203.918 161.917 207.64 168.45 217.111 175.633C215.004 167.16 210.685 159.398 204.596 153.141L204.639 153.215ZM262.183 192.624C263.85 187.791 265.163 182.817 266.545 177.876C266.608 177.08 266.547 176.278 266.362 175.501L264.47 175.998C259.076 180.08 256.409 185.068 257.345 191.622C257.702 194.169 258.22 196.697 258.673 199.239C260.035 197.142 261.21 194.928 262.183 192.624ZM239.887 176.052C239.369 175.573 238.822 175.126 238.249 174.715C237.939 175.285 237.717 175.898 237.59 176.534C237.451 182.94 239.011 188.688 244.444 192.695C246.987 194.526 249.67 196.127 252.973 198.288C250.596 189.845 246.088 182.154 239.881 175.956L239.887 176.052ZM256.786 224.365C263.092 225.165 268.293 222.336 273.231 218.964C275.515 217.645 277.799 216.327 280.084 215.008C280.458 214.73 280.794 214.402 281.082 214.034C280.603 213.739 280.092 213.502 279.559 213.326C275.021 212.252 270.245 213.013 266.269 215.442C262.704 217.501 259.328 219.847 255.899 222.099C255.405 222.534 254.967 223.029 254.595 223.572C255.293 223.891 256.027 224.125 256.781 224.269L256.786 224.365ZM150.643 252.482C148.77 247.436 146.915 242.38 144.957 237.359C144.491 236.565 143.903 235.85 143.214 235.24C142.616 236.137 142.166 237.126 141.882 238.167C141.28 244.715 144.737 249.244 149.151 253.244L150.643 252.482ZM123.584 271.924C123.131 272.371 122.795 272.923 122.606 273.531C124.507 275.237 126.289 277.681 128.549 278.335C133.085 279.434 137.686 280.24 142.325 280.751C137.264 275.288 130.261 273.924 123.547 271.946L123.584 271.924ZM143.145 280.798L142.743 280.832L142.818 280.962C142.818 280.962 143.033 280.863 143.107 280.82L143.145 280.798ZM145.006 286.595C137.969 291.005 128.892 291.582 124.51 299.991C135.098 299.286 142.84 294.295 144.968 286.616L145.006 286.595Z" fill="black" fill-opacity="0.1"/>
</g>
<defs>
<clipPath id="clip0_505_828">
<rect width="195" height="262" fill="white" transform="matrix(-0.866025 0.5 0.5 0.866025 168.875 0)"/>
</clipPath>
</defs>
</svg>
